<svg version="1.1" xmlns="http://www.w3.org/2000/svg" xmlns:xlink="http://www.w3.org/1999/xlink" width="188.55041" height="81.03103" viewBox="0,0,188.55041,81.03103"><defs><linearGradient x1="129.66484" y1="152.60686" x2="220.66484" y2="152.60686" gradientUnits="userSpaceOnUse" id="color-1"><stop offset="0.012" stop-color="#66b3e3"></stop><stop offset="1" stop-color="#1c75bc"></stop></linearGradient></defs><g transform="translate(-129.66394,-125.27066)"><g data-paper-data="{&quot;isPaintingLayer&quot;:true}" fill-rule="nonzero" stroke="none" stroke-width="1" stroke-linecap="butt" stroke-linejoin="miter" stroke-miterlimit="10" stroke-dasharray="" stroke-dashoffset="0" style="mix-blend-mode: normal"><path d="M220.66494,171.33766c0,4.752 -3.854,8.605 -8.605,8.605h-73.792c-4.752,0 -8.604,-3.854 -8.604,-8.605v-37.463c0,-4.752 3.852,-8.604 8.604,-8.604h73.791c4.754,0 8.605,3.852 8.605,8.604v37.463z" fill="url(#color-1)"></path><path d="M318.21435,163.64969v37.462c0,2.862 -2.327,5.19 -5.191,5.19h-73.791c-2.861,0 -5.19,-2.328 -5.19,-5.19v-37.463c0,-2.862 2.329,-5.19 5.19,-5.19h73.791c2.864,0 5.191,2.329 5.191,5.191z" fill="#27aae1"></path></g></g></svg>